<?xml version="1.0"?>
<svg xmlns="http://www.w3.org/2000/svg" xmlns:xlink="http://www.w3.org/1999/xlink" xmlns:svgjs="http://svgjs.com/svgjs" version="1.1" width="512" height="512" x="0" y="0" viewBox="0 0 465 465" style="enable-background:new 0 0 512 512" xml:space="preserve" class=""><g>
<g xmlns="http://www.w3.org/2000/svg">
	<path style="" d="M450,190H15v85h435V190z M232.5,260c-15.163,0-27.5-12.337-27.5-27.5s12.337-27.5,27.5-27.5   s27.5,12.337,27.5,27.5S247.663,260,232.5,260z" fill="#e0fffb" data-original="#ffffff" class=""/>
	<path style="" d="M232.5,205c-15.163,0-27.5,12.337-27.5,27.5s12.337,27.5,27.5,27.5s27.5-12.337,27.5-27.5   S247.663,205,232.5,205z" fill="#f2a643" data-original="#f2a643" class=""/>
	<rect x="15" y="290" style="" width="435" height="85" fill="#3db4ea00" data-original="#3db4ea" class=""/>
	<path style="" d="M367.5,90H15v85h435V90h-52.5c-4.143,0-7.5-3.357-7.5-7.5h-15C375,86.643,371.643,90,367.5,90z" fill="#3db4ea00" data-original="#3db4ea" class=""/>
	<path d="M457.5,75h-60c-4.143,0-7.5,3.357-7.5,7.5s3.357,7.5,7.5,7.5H450v85H15V90h352.5c4.143,0,7.5-3.357,7.5-7.5   s-3.357-7.5-7.5-7.5H7.5C3.357,75,0,78.357,0,82.5v300c0,4.143,3.357,7.5,7.5,7.5h450c4.143,0,7.5-3.357,7.5-7.5v-300   C465,78.357,461.643,75,457.5,75z M15,190h435v85H15V190z M15,375v-85h435v85H15z" fill="#90c3ca" data-original="#000000" style="" class=""/>
</g>
<g xmlns="http://www.w3.org/2000/svg">
</g>
<g xmlns="http://www.w3.org/2000/svg">
</g>
<g xmlns="http://www.w3.org/2000/svg">
</g>
<g xmlns="http://www.w3.org/2000/svg">
</g>
<g xmlns="http://www.w3.org/2000/svg">
</g>
<g xmlns="http://www.w3.org/2000/svg">
</g>
<g xmlns="http://www.w3.org/2000/svg">
</g>
<g xmlns="http://www.w3.org/2000/svg">
</g>
<g xmlns="http://www.w3.org/2000/svg">
</g>
<g xmlns="http://www.w3.org/2000/svg">
</g>
<g xmlns="http://www.w3.org/2000/svg">
</g>
<g xmlns="http://www.w3.org/2000/svg">
</g>
<g xmlns="http://www.w3.org/2000/svg">
</g>
<g xmlns="http://www.w3.org/2000/svg">
</g>
<g xmlns="http://www.w3.org/2000/svg">
</g>
</g></svg>
